<?xml version="1.0" encoding="UTF-8" standalone="no"?>
<!-- Created with Inkscape (http://www.inkscape.org/) -->

<svg
   xmlns:dc="http://purl.org/dc/elements/1.1/"
   xmlns:cc="http://creativecommons.org/ns#"
   xmlns:rdf="http://www.w3.org/1999/02/22-rdf-syntax-ns#"
   xmlns:svg="http://www.w3.org/2000/svg"
   xmlns="http://www.w3.org/2000/svg"
   xmlns:sodipodi="http://sodipodi.sourceforge.net/DTD/sodipodi-0.dtd"
   xmlns:inkscape="http://www.inkscape.org/namespaces/inkscape"
   width="63.900055mm"
   height="100.33497mm"
   viewBox="0 0 63.900055 100.33497"
   version="1.1"
   id="svg8"
   sodipodi:docname="icon.svg"
   inkscape:version="0.92.5 (2060ec1f9f, 2020-04-08)">
  <defs
     id="defs2">
    <clipPath
       id="clipPath194"
       clipPathUnits="userSpaceOnUse">
      <path
         inkscape:connector-curvature="0"
         id="path192"
         d="M -2.197883,-2.197883 H 614.19792 V 805.44792 H -2.197883 Z" />
    </clipPath>
    <clipPath
       id="clipPath242"
       clipPathUnits="userSpaceOnUse">
      <path
         inkscape:connector-curvature="0"
         id="path240"
         d="M 0,0 H 612 V 803.25 H 0 Z" />
    </clipPath>
  </defs>
  <sodipodi:namedview
     id="base"
     pagecolor="#ffffff"
     bordercolor="#666666"
     borderopacity="1.0"
     inkscape:pageopacity="0.0"
     inkscape:pageshadow="2"
     inkscape:zoom="0.24748737"
     inkscape:cx="-1244.7615"
     inkscape:cy="-6.5304578"
     inkscape:document-units="mm"
     inkscape:current-layer="layer1"
     showgrid="false"
     inkscape:window-width="1920"
     inkscape:window-height="1043"
     inkscape:window-x="1920"
     inkscape:window-y="0"
     inkscape:window-maximized="1" />
  <metadata
     id="metadata5">
    <rdf:RDF>
      <cc:Work
         rdf:about="">
        <dc:format>image/svg+xml</dc:format>
        <dc:type
           rdf:resource="http://purl.org/dc/dcmitype/StillImage" />
      </cc:Work>
    </rdf:RDF>
  </metadata>
  <g
     inkscape:label="Layer 1"
     inkscape:groupmode="layer"
     id="layer1"
     transform="translate(-71.940698,-80.745661)">
    <g
       transform="matrix(0.35277777,0,0,-0.35277777,59.861715,362.0778)"
       inkscape:label="Note May 24, 2022"
       id="g184">
      <g
         id="g236"
         transform="translate(-171.07056,34.281552)">
        <g
           clip-path="url(#clipPath242)"
           id="g238">
          <path
             inkscape:connector-curvature="0"
             id="path244"
             style="fill:#000000;fill-opacity:1;fill-rule:nonzero;stroke:none"
             d="m 205.4119,756.5012 c 0.6102,3.795 3.9002,6.6939 7.8673,6.6939 2.5103,0 4.7494,-1.1607 6.2101,-2.9747 v -14.9366 z" />
          <path
             inkscape:connector-curvature="0"
             id="path246"
             style="fill:#a2a3a4;fill-opacity:1;fill-rule:nonzero;stroke:none"
             d="M 219.4893,737.6419 V 481.7561 c -1.4607,-1.8139 -3.6998,-2.9746 -6.2101,-2.9746 -4.401,0 -7.9687,3.5677 -7.9687,7.9687 v 262.1899 z" />
          <path
             inkscape:connector-curvature="0"
             id="path248"
             style="fill:#a2a3a4;fill-opacity:1;fill-rule:nonzero;stroke:none"
             d="M 225.4658,755.7176 383.4344,630.1219 c 3.4449,-2.739 4.0172,-7.7519 1.2783,-11.1968 -0.9441,-1.1874 -2.1583,-2.0335 -3.4854,-2.5204 L 225.4658,740.5215 Z" />
          <path
             inkscape:connector-curvature="0"
             id="path250"
             style="fill:#2ca0d6;fill-opacity:1;fill-rule:nonzero;stroke:none"
             d="m 205.4117,756.5013 c 0.2103,1.3051 0.7488,2.5759 1.63,3.6843 2.7389,3.4449 7.7519,4.0172 11.1968,1.2782 l 1.2508,-0.9944 v -15.1856 z" />
          <path
             inkscape:connector-curvature="0"
             id="path252"
             style="fill:#a2a3a4;fill-opacity:1;fill-rule:nonzero;stroke:none"
             d="m 368.8602,626.2593 4.5251,3.7565 c 3.3863,2.811 8.4102,2.3447 11.2213,-1.0416 2.811,-3.3863 2.3447,-8.4102 -1.0416,-11.2213 l -1.9736,-1.6383 z" />
          <path
             inkscape:connector-curvature="0"
             id="path254"
             style="fill:#2ca0d6;fill-opacity:1;fill-rule:nonzero;stroke:none"
             d="M 225.4658,507.2234 364.1631,622.3602 376.8944,612.2154 225.4658,486.51 Z" />
          <path
             inkscape:connector-curvature="0"
             id="path256"
             style="fill:#a2a3a4;fill-opacity:1;fill-rule:nonzero;stroke:none"
             d="m 218.3691,480.6188 c -3.3863,-2.811 -8.4102,-2.3447 -11.2213,1.0416 -2.811,3.3863 -2.3447,8.4102 1.0416,11.2213 l 11.2999,9.3803 v -20.7133 z" />
          <path
             inkscape:connector-curvature="0"
             id="path258"
             style="fill:#a2a3a4;fill-opacity:1;fill-rule:nonzero;stroke:none"
             d="m 218.2738,601.2456 c -3.4294,-2.7584 -8.4455,-2.2145 -11.2039,1.2148 -2.7584,3.4293 -2.2145,8.4454 1.2148,11.2038 l 11.2046,9.0125 v -20.4534 z" />
          <path
             inkscape:connector-curvature="0"
             id="path260"
             style="fill:#a2a3a4;fill-opacity:1;fill-rule:nonzero;stroke:none"
             d="m 296.0615,684.2681 4.3936,3.5341 c 3.4293,2.7584 8.4455,2.2145 11.2039,-1.2148 2.7584,-3.4294 2.2145,-8.4455 -1.2148,-11.2039 l -1.6089,-1.2941 z" />
          <path
             inkscape:connector-curvature="0"
             id="path262"
             style="fill:#2ca0d6;fill-opacity:1;fill-rule:nonzero;stroke:none"
             d="m 225.4658,627.484 65.823,52.9452 12.7739,-10.1787 -78.5969,-63.2199 z" />
        </g>
      </g>
    </g>
  </g>
</svg>
