<?xml version="1.0" encoding="UTF-8" standalone="no"?>
<!-- Created with Inkscape (http://www.inkscape.org/) -->

<svg
   xmlns:dc="http://purl.org/dc/elements/1.1/"
   xmlns:cc="http://creativecommons.org/ns#"
   xmlns:rdf="http://www.w3.org/1999/02/22-rdf-syntax-ns#"
   xmlns:svg="http://www.w3.org/2000/svg"
   xmlns="http://www.w3.org/2000/svg"
   xmlns:sodipodi="http://sodipodi.sourceforge.net/DTD/sodipodi-0.dtd"
   xmlns:inkscape="http://www.inkscape.org/namespaces/inkscape"
   version="1.1"
   id="svg29"
   xml:space="preserve"
   width="219.25853"
   height="283.8461"
   viewBox="0 0 219.25853 283.8461"
   sodipodi:docname="logo2-filled.svg"
   inkscape:version="0.92.5 (2060ec1f9f, 2020-04-08)"><metadata
     id="metadata35"><rdf:RDF><cc:Work
         rdf:about=""><dc:format>image/svg+xml</dc:format><dc:type
           rdf:resource="http://purl.org/dc/dcmitype/StillImage" /><dc:title></dc:title></cc:Work></rdf:RDF></metadata><defs
     id="defs33"><clipPath
       clipPathUnits="userSpaceOnUse"
       id="clipPath47"><path
         d="M -2.197883,-2.197883 H 614.19792 V 805.44792 H -2.197883 Z"
         id="path45"
         inkscape:connector-curvature="0" /></clipPath><clipPath
       clipPathUnits="userSpaceOnUse"
       id="clipPath95"><path
         d="M 0,0 H 612 V 803.25 H 0 Z"
         id="path93"
         inkscape:connector-curvature="0" /></clipPath></defs><sodipodi:namedview
     pagecolor="#ffffff"
     bordercolor="#666666"
     borderopacity="1"
     objecttolerance="10"
     gridtolerance="10"
     guidetolerance="10"
     inkscape:pageopacity="0"
     inkscape:pageshadow="2"
     inkscape:window-width="1920"
     inkscape:window-height="1043"
     id="namedview31"
     showgrid="false"
     inkscape:zoom="0.57109931"
     inkscape:cx="-256.32126"
     inkscape:cy="447.46981"
     inkscape:window-x="1920"
     inkscape:window-y="0"
     inkscape:window-maximized="1"
     inkscape:current-layer="g89" /><g
     id="g37"
     inkscape:groupmode="layer"
     inkscape:label="Logo2"
     transform="matrix(1.3333333,0,0,-1.3333333,-309.55919,322.38544)"><g
       id="g89"><g
         id="g91"
         clip-path="url(#clipPath95)"><path
           d="M 311.6253,221.2062 V 52.97757 l 71.164,95.91163 z m -1.7167,18.7863 84.988,-86.365 c 2.0651,-2.0986 2.2942,-5.3886 0.5398,-7.7532 L 310.4484,31.33137 c -3.4317,-4.62509 -10.7762,-2.19793 -10.7762,3.56124 V 235.8005 c 0,5.3477 6.4855,8.0037 10.2364,4.192"
           style="fill:#a2a3a4;fill-opacity:1;fill-rule:nonzero;stroke:none"
           id="path109"
           inkscape:connector-curvature="0" /><path
           d="m 299.6722,234.4235 c 0,3.3008 2.6758,5.9766 5.9765,5.9766 3.3008,0 5.9766,-2.6758 5.9766,-5.9766 V 113.2377 c 0,-3.3008 -2.6758,-5.9766 -5.9766,-5.9766 -3.3007,0 -5.9765,2.6758 -5.9765,5.9766 z"
           style="fill:#a2a3a4;fill-opacity:1;fill-rule:nonzero;stroke:none"
           id="path111"
           inkscape:connector-curvature="0" /><path
           d="m 299.6722,234.4235 c 0,3.3008 2.6758,5.9766 5.9765,5.9766 3.3008,0 5.9766,-2.6758 5.9766,-5.9766 V 94.26209 c 0,-3.30077 -2.6758,-5.97656 -5.9766,-5.97656 -3.3007,0 -5.9765,2.67579 -5.9765,5.97656 z"
           style="fill:#a2a3a4;fill-opacity:1;fill-rule:nonzero;stroke:none"
           id="path113"
           inkscape:connector-curvature="0" /><path
           d="m 299.6722,220.71 -52.6016,-55.9916 52.6016,-39.5159 z m 11.9531,15.0905 V 113.2377 c 0,-4.9271 -5.6269,-7.7378 -9.5663,-4.7785 l -67.5025,50.7099 c -2.8466,2.1384 -3.204,6.2757 -0.7662,8.8706 l 67.5025,71.8529 c 3.7077,3.9466 10.3325,1.3229 10.3325,-4.0921"
           style="fill:#a2a3a4;fill-opacity:1;fill-rule:nonzero;stroke:none"
           id="path115"
           inkscape:connector-curvature="0" /><path
           d="m 299.3041,221.1775 v -95.5014 l -52.3169,38.9505 z"
           style="fill:#ffffff;fill-opacity:1;fill-rule:nonzero;stroke:none"
           id="path117"
           inkscape:connector-curvature="0" /><path
           d="m 297.3119,216.0905 -47.357,-51.1897 47.357,-35.2578 z m 3.9844,5.087 v -95.5014 c 0,-1.6384 -1.8677,-2.5764 -3.1819,-1.598 l -52.3168,38.9505 c -0.9498,0.7071 -1.0768,2.0817 -0.2727,2.9509 l 52.3168,56.5509 c 1.2308,1.3304 3.4546,0.4595 3.4546,-1.3529"
           style="fill:#2ca0d6;fill-opacity:1;fill-rule:nonzero;stroke:none"
           id="path119"
           inkscape:connector-curvature="0" /><path
           d="M 311.7015,221.1775 383.274,149.605 311.7015,53.37356 Z"
           style="fill:#ffffff;fill-opacity:1;fill-rule:nonzero;stroke:none"
           id="path121"
           inkscape:connector-curvature="0" /><path
           d="M 313.6937,216.3679 V 59.39031 l 66.9548,90.02289 z m -0.5835,6.2183 71.5724,-71.5725 c 0.6989,-0.6989 0.7797,-1.8045 0.1899,-2.5976 L 313.3001,52.18465 c -1.145,-1.53946 -3.5908,-0.72965 -3.5908,1.18891 V 221.1775 c 0,1.7748 2.1459,2.6637 3.4009,1.4087"
           style="fill:#2ca0d6;fill-opacity:1;fill-rule:nonzero;stroke:none"
           id="path123"
           inkscape:connector-curvature="0" /></g></g></g></svg>