<?xml version="1.0" encoding="UTF-8" standalone="no"?>
<svg
   xmlns:dc="http://purl.org/dc/elements/1.1/"
   xmlns:cc="http://creativecommons.org/ns#"
   xmlns:rdf="http://www.w3.org/1999/02/22-rdf-syntax-ns#"
   xmlns:svg="http://www.w3.org/2000/svg"
   xmlns="http://www.w3.org/2000/svg"
   viewBox="0 0 625.33331 392"
   height="392"
   width="625.33331"
   id="svg2"
   version="1.1">
  <metadata
     id="metadata8">
    <rdf:RDF>
      <cc:Work
         rdf:about="">
        <dc:format>image/svg+xml</dc:format>
        <dc:type
           rdf:resource="http://purl.org/dc/dcmitype/StillImage" />
        <dc:title></dc:title>
      </cc:Work>
    </rdf:RDF>
  </metadata>
  <defs
     id="defs6" />
  <path
     id="path12"
     d="m 202.33959,281.83093 c -11.94132,-4.45629 -18.55291,-13.35885 -21.06187,-28.36001 -4.82064,-28.82287 12.47697,-51.01933 37.45388,-48.06118 17.0316,2.01713 27.18232,13.95992 28.85641,33.95091 1.50597,17.98332 -5.04975,33.69732 -16.74179,40.12987 -7.22117,3.97282 -21.08274,5.11088 -28.50663,2.34041 z m 28.24122,-6.62495 c 8.68351,-5.74648 12.65319,-15.43685 12.65319,-30.88768 0,-21.91048 -8.47415,-33.39892 -25.79431,-34.96944 -20.24785,-1.83601 -32.7703,11.89526 -32.56277,35.70612 0.0971,11.1344 3.36251,20.95799 8.83367,26.57455 6.32701,6.49515 10.89709,8.11101 21.75197,7.69096 7.76109,-0.30033 10.46776,-1.03696 15.11825,-4.11451 z m 57.67163,5.99719 c -15.27388,-5.46321 -22.18922,-17.86343 -21.31347,-38.2182 0.435,-10.1106 1.11857,-13.10305 4.34152,-19.00577 8.43757,-15.45311 26.40385,-22.13503 46.01061,-17.11202 9.5072,2.43564 10.43767,2.94378 8.62896,4.71251 -0.75181,0.73519 -4.13053,0.46248 -8.53501,-0.68889 -15.99607,-4.18153 -26.89583,-1.79641 -36.78324,8.049 -8.34832,8.31285 -10.52159,15.01201 -9.66581,29.79509 1.13462,19.60001 10.61201,29.39813 29.61541,30.61769 5.54545,0.3559 12.81819,-0.0812 16.65159,-1.00086 l 6.80595,-1.63272 v -13.86702 -13.86701 h -11.99999 c -9.77778,0 -12,-0.37037 -12,-2 0,-1.6508 2.44444,-2 14,-2 h 13.99999 v 17.10963 17.10962 l -5,1.64352 c -2.75,0.90394 -10.09999,1.92428 -16.33333,2.26744 -8.93396,0.49183 -12.83432,0.0871 -18.42318,-1.91201 z m 194.75651,0.97097 c -3.66539,-0.8707 -5.66667,-2.07962 -5.66667,-3.42308 0,-1.58902 0.8614,-1.87138 3.66667,-1.2019 2.01667,0.48128 7.93455,1.22486 13.15084,1.6524 15.95186,1.30745 24.22656,-3.41071 25.47966,-14.52828 0.95951,-8.51274 -3.17409,-12.82224 -17.47665,-18.22039 -18.69818,-7.05715 -23.43336,-11.52432 -23.46254,-22.13459 -0.0295,-10.71734 7.88785,-17.58067 21.73299,-18.83976 7.94035,-0.72209 19.74882,1.96315 20.64704,4.69514 0.46698,1.4203 -0.29057,1.65017 -3.23066,0.98032 -22.90137,-5.21769 -36.71817,0.93617 -34.7668,15.48478 0.97245,7.25014 3.66199,9.66502 16.10882,14.46383 5.94951,2.2938 13.05494,5.3116 15.78982,6.7062 12.68197,6.46695 11.84554,24.54333 -1.49619,32.33532 -5.28905,3.08897 -21.47877,4.16736 -30.47633,2.03001 z m 62.66666,0 c -3.66538,-0.8707 -5.66666,-2.07962 -5.66666,-3.42308 0,-1.58902 0.8614,-1.87138 3.66666,-1.2019 2.01667,0.48128 7.93455,1.22486 13.15084,1.6524 15.95187,1.30745 24.22656,-3.41071 25.47967,-14.52828 0.95951,-8.51274 -3.17409,-12.82224 -17.47665,-18.22039 -18.69819,-7.05715 -23.43336,-11.52432 -23.46255,-22.13459 -0.0295,-10.71734 7.88785,-17.58067 21.733,-18.83976 7.94035,-0.72209 19.74881,1.96315 20.64704,4.69514 0.46697,1.4203 -0.29057,1.65017 -3.23067,0.98032 -22.90137,-5.21769 -36.71817,0.93617 -34.7668,15.48478 0.97246,7.25014 3.66199,9.66502 16.10883,14.46383 5.94951,2.2938 13.05493,5.3116 15.78981,6.7062 12.68197,6.46695 11.84555,24.54333 -1.49618,32.33532 -5.28906,3.08897 -21.47878,4.16736 -30.47634,2.03001 z M 50.675635,244.1744 v -38.14389 l 14.999999,0.52727 c 18.462313,0.64899 24.125406,2.88777 27.806524,10.99271 3.298449,7.26239 3.152849,13.64408 -0.473192,20.74137 -4.275978,8.36942 -10.325257,11.11955 -25.963353,11.8035 l -12.369979,0.54102 v 15.84096 c 0,13.19196 -0.334449,15.84096 -1.999999,15.84096 -1.731171,0 -2,-5.1271 -2,-38.1439 z m 30.560413,0.0308 c 6.335635,-2.53503 9.242237,-6.58328 10.202745,-14.21019 0.932275,-7.40272 -2.511984,-14.21855 -8.76316,-17.34136 -3.374237,-1.68561 -7.897739,-2.33183 -16.333332,-2.33333 l -11.666667,-0.002 v 18 18 h 10.639685 c 6.60006,0 12.644767,-0.80228 15.920729,-2.11305 z m 36.106252,-0.0547 v -38.16777 l 15.01995,0.57492 c 11.28418,0.43194 16.34151,1.21983 20.33334,3.16778 7.23581,3.53097 10.34792,9.73297 9.49244,18.91708 -0.79508,8.53583 -4.27611,13.74599 -11.30019,16.91341 l -5.27843,2.38024 10.53676,17.19106 c 8.60124,14.0332 10.0737,17.19106 8.01588,17.19106 -1.81318,0 -5.27657,-4.67088 -12.33698,-16.6382 l -9.81611,-16.6382 -10.33333,-0.0285 -10.33333,-0.0284 v 16.66667 c 0,13.92592 -0.32889,16.66666 -2,16.66666 -1.7312,0 -2,-5.12976 -2,-38.16778 z m 31.38707,-1.28042 c 6.37116,-3.02332 9.15144,-7.92381 9.1693,-16.16173 0.0263,-12.11829 -6.77708,-16.36864 -26.22304,-16.38263 l -10.33333,-0.007 v 17.33334 17.33333 h 11.46516 c 7.70594,0 12.92645,-0.69343 15.92191,-2.11487 z m 203.27958,1.4482 v -37.99999 h 11.26771 c 21.37417,0 29.79063,3.74214 32.69768,14.53811 2.80457,10.4154 -1.59664,20.14196 -11.3936,25.1795 l -4.43877,2.28238 10.04828,16.44078 c 5.52656,9.04241 9.7225,16.76654 9.32433,17.1647 -1.84829,1.84831 -4.88185,-1.80316 -13.94417,-16.78448 l -9.7719,-16.15433 h -9.89477 -9.89479 v 16.66667 c 0,13.92592 -0.32889,16.66666 -2,16.66666 -1.731,0 -2,-5.1111 -2,-38 z m 30.61515,-1.30669 c 6.54196,-3.38297 9.38485,-8.23783 9.38485,-16.02664 0,-12.61949 -6.20238,-16.64523 -25.66666,-16.65923 l -10.33334,-0.007 v 17.3329 17.33333 h 11.39955 c 7.45672,0 12.71943,-0.68253 15.2156,-1.97336 z m 36.36409,1.64003 0.35409,-37.66666 20.33334,-0.36807 c 17.50021,-0.31677 20.33333,-0.0845 20.33333,1.66667 0,1.72719 -2.82136,2.03472 -18.66667,2.03472 h -18.66666 v 15.33334 15.33333 h 18 c 15.1111,0 18,0.32099 18,2 0,1.67901 -2.8889,2 -18,2 h -18 v 16.66667 16.66666 h 18.66666 c 15.70371,0 18.66667,0.31747 18.66667,2 0,1.69184 -3.18749,2 -20.68743,2 h -20.68744 z m -144.5281,-67.90906 c -6.72592,-1.79111 -14.84641,-9.10313 -18.56993,-16.72115 -2.6459,-5.41326 -3.12102,-8.47208 -3.16398,-20.36978 -0.0449,-12.4373 0.34576,-14.84545 3.50002,-21.57421 6.3991,-13.65081 21.21264,-20.634063 36.82448,-17.35945 9.83325,2.06255 16.43344,6.86436 21.06086,15.32236 3.26199,5.96222 3.87475,8.76544 4.33168,19.81592 0.65632,15.87268 -1.78502,24.37078 -9.36305,32.59198 -8.13112,8.82121 -21.03356,11.91241 -34.62008,8.29433 z m 22.57349,-4.48791 c 6.31999,-2.64065 10.50247,-6.57541 14.10514,-13.26969 2.4409,-4.53557 2.87024,-7.52716 2.87024,-20 0,-12.57291 -0.41992,-15.45167 -2.94154,-20.16561 -5.95308,-11.12877 -15.42278,-15.98868 -28.7923,-14.77637 -15.5744,1.41224 -24.78808,12.4459 -25.98648,31.11961 -1.54143,24.01868 9.50592,39.04636 28.76314,39.12642 3.87355,0.0161 9.26536,-0.89936 11.9818,-2.03436 z m -241.976723,0.50706 c 1.013276,-2.44386 7.792024,-19.59205 15.063882,-38.10706 9.12618,-23.23636 13.841061,-33.65853 15.221561,-33.64703 1.375916,0.0115 5.417722,9.05975 12.952757,28.99701 19.324483,51.13146 18.026803,47.23792 15.581343,46.75004 -1.39706,-0.27872 -4.0912,-5.37353 -7.45768,-14.10302 l -5.27049,-13.66667 H 84.776877 68.405525 l -5.216149,13.65185 c -3.610507,9.44951 -5.948563,13.7929 -7.595495,14.11007 -2.189304,0.42161 -2.232197,0.10333 -0.537024,-3.98519 z m 37.765217,-46.41769 c -3.747209,-10.25253 -7.148446,-18.65254 -7.558303,-18.66667 -0.587287,-0.0203 -9.478771,22.12168 -14.044545,34.9743 -0.756936,2.13077 0.440529,2.33333 13.79353,2.33333 h 14.622431 z m 79.874596,48.97429 c -0.30907,-0.91666 -5.00108,-18.01666 -10.42668,-38 -8.17094,-30.09478 -9.49812,-36.33279 -7.72955,-36.33016 1.65619,0.003 3.91159,6.65772 10.05375,29.66668 4.35521,16.31491 8.56053,31.60444 9.34516,33.97674 1.32394,4.00293 2.09585,1.8685 10.7287,-29.66667 7.17767,-26.21944 9.78496,-33.97993 11.41623,-33.97993 1.62013,0 4.19869,7.39901 11.03584,31.66668 4.90696,17.41666 8.91435,32.41666 8.90529,33.33333 -0.009,0.91667 0.58355,1.66667 1.31688,1.66667 0.73334,0 1.33334,-0.78912 1.33334,-1.75359 0,-0.96448 3.24316,-13.41448 7.20701,-27.66667 3.96385,-14.25219 7.88697,-28.46309 8.71805,-31.57975 0.90461,-3.39244 2.29309,-5.66667 3.45965,-5.66667 1.07174,0 1.94862,0.38849 1.94862,0.86331 0,0.47482 -4.62567,17.59462 -10.27927,38.04399 -7.95009,28.75592 -10.72997,37.09388 -12.26836,36.79762 -1.38402,-0.26655 -4.84793,-10.61727 -11.3874,-34.02739 -5.16906,-18.50438 -9.6983,-33.64861 -10.06497,-33.65383 -0.36667,-0.005 -2.92913,8.53732 -5.69439,18.98341 -11.07952,41.85441 -13.29193,48.9929 -15.18421,48.9929 -1.02947,0 -2.12463,-0.75 -2.43369,-1.66667 z m 167.31228,-36.50112 v -38.16778 l 15,0.59785 c 16.34158,0.65132 21.27478,2.28262 26.34308,8.71107 2.48559,3.15264 2.83856,5.00131 2.41114,12.62839 -0.55214,9.85255 -3.10723,13.93338 -11.40298,18.21205 l -4.31544,2.22576 6.39867,10.64689 c 14.29615,23.78771 14.06625,23.31643 11.35889,23.28509 -1.72314,-0.02 -5.40034,-5.01228 -12.27613,-16.66666 l -9.81611,-16.6382 h -9.85056 -9.85056 v 16.66666 c 0,13.92592 -0.32889,16.66667 -2,16.66667 -1.7312,0 -2,-5.12976 -2,-38.16779 z m 32.11674,-2.20557 c 2.48109,-1.672 5.29518,-4.522 6.25354,-6.33333 2.32672,-4.39758 1.40511,-16.52489 -1.49973,-19.73471 -3.28761,-3.63276 -11.14949,-5.55861 -22.69191,-5.55861 h -10.17864 v 17.33334 17.33334 h 11.80283 c 10.07809,0 12.46201,-0.44424 16.31391,-3.04003 z m 31.88326,2.37336 c 0,-32.8889 0.269,-38.00001 2,-38.00001 1.68583,0 2,3.03704 2,19.33334 0,10.63334 0.45776,19.33334 1.01724,19.33334 0.55949,0 9.70173,-8.7 20.31609,-19.33334 11.97271,-11.99412 20.30979,-19.33334 21.96191,-19.33334 1.9246,0 -1.72216,4.39669 -13.15088,15.85528 -11.2006,11.22985 -15.49008,16.37934 -14.70372,17.6517 0.61065,0.98804 7.58631,10.62538 15.50148,21.41631 7.91516,10.79095 14.39121,19.94768 14.39121,20.34831 0,0.40062 -0.85104,0.72841 -1.89118,0.72841 -1.04016,0 -8.54974,-9 -16.68795,-20 -8.1382,-11 -15.2654,-20 -15.8382,-20 -0.57281,0 -3.26324,2.27529 -5.97873,5.05621 l -4.93727,5.05623 v 14.94377 c 0,12.39448 -0.34119,14.94379 -2,14.94379 -1.731,0 -2,-5.11111 -2,-38 z m 89.33333,36.75523 c 0,-0.68463 1.65,-1.43463 3.66667,-1.66667 l 3.66666,-0.42189 0.35591,-34.36215 0.35589,-34.36217 -4.02256,-0.80451 c -7.34342,-1.46869 -4.16375,-3.13785 5.97743,-3.13785 10.14119,0 13.32085,1.66916 5.97743,3.13785 l -4.02256,0.80451 0.35589,34.36217 0.35591,34.36215 3.66666,0.42189 c 7.65644,0.88097 3.2395,2.91144 -6.33333,2.91144 -5.5,0 -10,-0.56015 -10,-1.24477 z m 38.66667,-36.75523 c 0,-35.32235 0.16441,-37.99617 2.33333,-37.94555 1.53484,0.0358 10.09017,11.55702 25,33.66668 l 22.66667,33.6122 0.35622,-33.66666 c 0.30372,-28.70362 0.6477,-33.66668 2.33334,-33.66668 1.70099,0 1.9771,5.30668 1.9771,38.00001 0,32.37107 -0.28744,38 -1.9405,38 -1.06728,0 -12.31728,-15.34471 -25,-34.09933 l -23.0595,-34.09935 -0.35584,34.09935 c -0.30356,29.08916 -0.6464,34.09933 -2.33333,34.09933 -1.70151,0 -1.97749,-5.30336 -1.97749,-38 z"
     style="fill:#000000;stroke-width:1.33333325" />
</svg>
